:SAMPLES-PER-SECOND 24
:FULLY-SPECIFIED
:DEGREES
342
root  3.69069 37.1461 34.8501 176.468 -76.0417 177.036
RightUpLeg  -2.38351 -9.75405 -22.6285
RightLeg  35.061 11.1258 8.05967
RightFoot  -13.3256 0.214543 18.3948
RightToes  -1.74623e-010 0 -2.59999e-017
Spine  4.53479 -1.04394 -7.60372
Spine1  16.914 -3.75349 4.50776
HEad  -27.4896 -39.3412 21.3953
LeftShoulder1  2.05468 -3.09239 -24.9679
LeftArm  14.6398 9.63657 -42.6748
LeftForeArm  113.585 -79.9573 -105.214
LeftHand  0.099461 7.30685 7.7729
RightShoulder  3.3565 5.53922 31.2287
RightArm  -28.5182 -4.91952 25.4547
RightForeArm  3.6264 32.5606 6.99759
RightHand  -1.33258 -0.782581 -32.9584
LeftUpLeg  -1.14864 11.5188 18.3779
LeftLeg  40.5113 0.566968 0.916244
LeftFoot  -11.5932 0.00243365 -21.2705
LeftToes  -6.27559e-011 -2.10356e-011 8.24929e-012
343
root  3.35122 38.8044 35.31 179.754 -75.6325 173.325
RightUpLeg  -0.619024 -8.20512 -23.3447
RightLeg  29.0836 9.83579 5.66716
RightFoot  -1.32418 -1.87866 20.9776
RightToes  -1.74623e-010 0 -2.59999e-017
Spine  3.98275 -1.47192 -8.38815
Spine1  16.4864 -4.06922 5.11367
HEad  -23.8595 -40.062 20.6526
LeftShoulder1  2.04402 -3.15695 -24.4815
LeftArm  15.6741 13.4711 -46.9393
LeftForeArm  109.394 -80.0413 -101.99
LeftHand  0.0437182 6.45636 7.57898
RightShoulder  3.27074 5.38764 30.8964
RightArm  -26.3288 -8.53789 28.7327
RightForeArm  -8.31589 37.543 9.08842
RightHand  -1.71367 0.0506007 -35.9944
LeftUpLeg  0.107631 11.1642 15.7613
LeftLeg  36.0952 1.98667 1.93343
LeftFoot  1.00212 1.78852 -16.877
LeftToes  -6.27559e-011 -2.10356e-011 8.24929e-012
344
root  3.00136 40.2094 35.8643 -179.322 -75.6107 172.33
RightUpLeg  0.315937 -6.95192 -23.1231
RightLeg  23.8479 6.44559 2.91203
RightFoot  12.4764 -4.02324 19.3833
RightToes  -1.74623e-010 0 -2.59999e-017
Spine  3.54692 -2.06969 -8.81533
Spine1  15.5514 -4.71997 6.26089
HEad  -20.44 -40.7342 19.3756
LeftShoulder1  2.02408 -3.26987 -23.6369
LeftArm  18.2913 15.605 -49.6198
LeftForeArm  106.442 -80.0241 -100.479
LeftHand  -0.0183421 5.45851 6.53632
RightShoulder  3.33446 5.43952 31.4003
RightArm  -19.6524 -12.4094 28.2841
RightForeArm  -14.3245 43.271 11.4225
RightHand  -0.918581 -1.50745 -26.4949
LeftUpLeg  1.4083 11.2256 13.8964
LeftLeg  31.069 1.92089 1.6074
LeftFoot  7.56655 2.07422 -12.6668
LeftToes  -6.27559e-011 -2.10356e-011 8.24929e-012
345
root  2.7325 40.95 36.3066 -177.73 -75.1292 170.736
RightUpLeg  0.0649975 -5.91919 -22.7829
RightLeg  21.8637 2.48212 0.884587
RightFoot  18.7747 -3.74029 14.3297
RightToes  -1.74623e-010 0 -2.59999e-017
Spine  3.28576 -2.31191 -10.2682
Spine1  14.5868 -5.32003 7.34414
HEad  -18.5974 -40.593 18.3077
LeftShoulder1  2.02632 -3.52801 -22.5144
LeftArm  21.2503 15.6078 -50.9032
LeftForeArm  109.883 -79.9427 -103.409
LeftHand  -0.0408474 4.9289 4.71305
RightShoulder  3.2576 5.38896 30.74
RightArm  -13.4007 -16.6757 28.2758
RightForeArm  -8.67375 50.1582 14.1237
RightHand  -0.550999 -1.22361 -15.2698
LeftUpLeg  2.61133 12.7206 12.6737
LeftLeg  27.1389 0.831433 0.811471
LeftFoot  5.69065 1.87127 -12.6878
LeftToes  -6.27559e-011 -2.10356e-011 8.24929e-012
346
root  2.60015 41.0335 36.7265 -175.506 -74.4889 168.417
RightUpLeg  -0.962052 -4.78671 -22.6461
RightLeg  23.2292 2.00191 0.737964
RightFoot  15.5866 -2.10055 9.18982
RightToes  -1.74623e-010 0 -2.59999e-017
Spine  3.51484 -2.51171 -12.307
Spine1  14.1604 -6.02613 8.32726
HEad  -18.6956 -39.6638 18.1318
LeftShoulder1  1.93007 -3.48354 -21.2421
LeftArm  24.2936 12.9958 -50.957
LeftForeArm  115.889 -79.7069 -108.775
LeftHand  -0.04251 4.78767 3.86625
RightShoulder  3.03004 5.16389 29.0329
RightArm  -8.28047 -19.0952 29.751
RightForeArm  2.55751 56.1949 16.8035
RightHand  -0.296647 -0.448193 -6.87963
LeftUpLeg  2.95846 14.6254 11.5713
LeftLeg  24.169 -0.465922 0.112357
LeftFoot  4.42919 1.94678 -14.1757
LeftToes  -6.27559e-011 -2.10356e-011 8.24929e-012
347
root  2.57706 40.4566 37.2543 -175.314 -74.1241 167.988
RightUpLeg  -2.45057 -3.29497 -22.2782
RightLeg  26.6552 4.46843 2.25082
RightFoot  9.30956 -1.40077 8.06509
RightToes  -1.74623e-010 0 -2.59999e-017
Spine  4.82327 -2.83098 -12.7081
Spine1  13.4002 -6.55434 8.09784
HEad  -19.0486 -38.4428 17.6977
LeftShoulder1  1.78111 -3.27391 -19.8084
LeftArm  26.6106 8.56965 -50.211
LeftForeArm  116.801 -79.5512 -110.564
LeftHand  -0.0492116 4.58765 3.84825
RightShoulder  2.88904 5.04313 27.8464
RightArm  -5.19714 -19.8184 31.0767
RightForeArm  11.9961 60.8555 19.5541
RightHand  -0.0412242 -1.57331 -0.957982
LeftUpLeg  2.12901 13.8616 10.4189
LeftLeg  23.7475 -0.325009 0.198468
LeftFoot  4.19269 2.04349 -15.0919
LeftToes  -6.27559e-011 -2.10356e-011 8.24929e-012
348
root  2.60602 39.2874 37.7583 -176.004 -73.6526 168.242
RightUpLeg  -4.33145 -2.44147 -21.8487
RightLeg  31.6371 3.09754 1.82767
RightFoot  2.57765 -1.24388 10.2997
RightToes  -1.74623e-010 0 -2.59999e-017
Spine  6.19307 -2.81628 -13.249
Spine1  13.1577 -6.94078 8.0523
HEad  -20.0429 -37.1309 17.2143
LeftShoulder1  1.73248 -3.2739 -19.0368
LeftArm  27.5749 2.38377 -48.361
LeftForeArm  112.215 -79.5316 -108.739
LeftHand  -0.0452594 4.74461 4.18386
RightShoulder  2.95133 5.22026 27.8753
RightArm  -4.26123 -19.0981 31.1209
RightForeArm  17.3759 64.2211 22.3839
RightHand  0.0321612 -3.22939 2.82568
LeftUpLeg  0.948982 12.8035 9.76791
LeftLeg  27.3831 -0.554624 0.0590523
LeftFoot  -2.97171 1.18896 -15.9923
LeftToes  -6.27559e-011 -2.10356e-011 8.24929e-012
349
root  2.68583 37.9602 37.9856 -174.353 -73.4976 166.319
RightUpLeg  -5.67969 -1.83994 -21.6952
RightLeg  36.166 -2.99494 -2.59962
RightFoot  -5.30636 -0.754884 13.5726
RightToes  -1.74623e-010 0 -2.59999e-017
Spine  5.92052 -2.4402 -16.5608
Spine1  15.13 -7.64304 9.9072
HEad  -22.3264 -36.2907 18.0931
LeftShoulder1  1.73954 -3.12074 -19.7859
LeftArm  27.9384 -6.74266 -44.5549
LeftForeArm  103.976 -79.7449 -102.453
LeftHand  -0.0137424 5.6484 5.10495
RightShoulder  3.25503 5.57133 29.9605
RightArm  -5.85954 -16.412 30.2073
RightForeArm  22.079 65.1402 22.8538
RightHand  0.0158643 -4.36022 4.91355
LeftUpLeg  -0.542836 14.4934 9.76327
LeftLeg  32.8927 -2.89684 -1.6359
LeftFoot  -13.2685 -0.191629 -16.0069
LeftToes  -6.27559e-011 -2.10356e-011 8.24929e-012
350
root  2.72674 37.1778 37.9539 -172.504 -74.6711 164.679
RightUpLeg  -5.55063 -1.91238 -21.8309
RightLeg  37.9179 -5.64565 -4.947
RightFoot  -10.8661 -0.160781 18.5821
RightToes  -1.74623e-010 0 -2.59999e-017
Spine  4.76781 -2.50264 -19.1207
Spine1  17.1756 -8.25368 11.0671
HEad  -23.1371 -36.8136 19.5183
LeftShoulder1  1.74095 -2.82659 -21.1107
LeftArm  27.5428 -14.1642 -41.5578
LeftForeArm  92.5277 -80.1086 -87.9445
LeftHand  0.0228426 6.33563 6.15472
RightShoulder  3.65246 5.88509 33.0261
RightArm  -9.92489 -15.3407 31.1471
RightForeArm  28.5028 63.1958 19.8644
RightHand  -0.033266 -5.79818 1.27122
LeftUpLeg  -2.467 15.7827 10.2091
LeftLeg  36.7138 -4.60996 -3.27642
LeftFoot  -17.7477 -0.754142 -15.2489
LeftToes  -6.27559e-011 -2.10356e-011 8.24929e-012
351
root  2.59958 37.4295 37.7618 -175.295 -76.2074 167.956
RightUpLeg  -4.70944 -4.99502 -21.8425
RightLeg  37.133 -1.9134 -1.81673
RightFoot  -9.41872 -0.45881 21.6795
RightToes  -1.74623e-010 0 -2.59999e-017
Spine  3.96667 -3.04181 -17.7735
Spine1  17.2048 -8.21807 9.91722
HEad  -21.5232 -38.1533 20.0034
LeftShoulder1  1.76501 -2.7479 -21.8889
LeftArm  25.5176 -12.4783 -42.1957
LeftForeArm  89.243 -80.2027 -79.7553
LeftHand  0.0433067 6.45126 7.56711
RightShoulder  3.80825 5.99555 34.2075
RightArm  -12.6353 -18.3966 34.5007
RightForeArm  33.8811 60.6393 16.9377
RightHand  0.201934 -8.85416 -7.6511
LeftUpLeg  -2.89981 14.903 11.4216
LeftLeg  35.9807 -4.72545 -3.28479
LeftFoot  -15.8545 -0.515851 -15.3749
LeftToes  -6.27559e-011 -2.10356e-011 8.24929e-012
352
root  2.39287 38.5355 37.3481 178.328 -76.1382 174.92
RightUpLeg  -4.88887 -9.47063 -20.917
RightLeg  35.8107 3.38928 2.38128
RightFoot  -0.365724 -1.65944 17.3754
RightToes  -1.74623e-010 0 -2.59999e-017
Spine  3.03347 -3.18851 -15.6447
Spine1  16.3668 -7.88569 9.2778
HEad  -19.9441 -38.8937 19.6946
LeftShoulder1  1.82807 -2.75245 -22.9363
LeftArm  22.5748 -3.55784 -44.0426
LeftForeArm  101.972 -80.2897 -93.1797
LeftHand  0.0629344 6.50485 9.0667
RightShoulder  3.7272 5.94227 33.5771
RightArm  -10.5792 -22.5958 35.9883
RightForeArm  34.261 59.5273 16.0451
RightHand  0.329645 -9.84812 -9.74604
LeftUpLeg  -0.874486 13.8617 13.3641
LeftLeg  30.8781 -4.39968 -2.45223
LeftFoot  -9.35987 0.348227 -16.6239
LeftToes  -6.27559e-011 -2.10356e-011 8.24929e-012
353
root  2.26678 39.7834 36.716 174.467 -75.1479 179.366
RightUpLeg  -5.22429 -10.5506 -19.2756
RightLeg  33.1154 7.38454 4.93004
RightFoot  8.26955 -1.90362 11.312
RightToes  -1.74623e-010 0 -2.59999e-017
Spine  2.35944 -2.80802 -14.7625
Spine1  14.9121 -7.23516 9.58244
HEad  -18.3861 -39.2504 19.1048
LeftShoulder1  1.90949 -2.82438 -23.9421
LeftArm  20.8202 5.75866 -45.1761
LeftForeArm  110.464 -79.7557 -105.728
LeftHand  0.0293821 6.04632 9.1156
RightShoulder  3.64125 5.87394 32.9499
RightArm  -6.9808 -26.3018 34.6863
RightForeArm  30.198 59.8884 16.7479
RightHand  -0.0117226 -6.8725 -1.85318
LeftUpLeg  1.73432 13.5476 14.9225
LeftLeg  24.0821 -2.48904 -0.865668
LeftFoot  0.309873 1.79348 -17.4821
LeftToes  -6.27559e-011 -2.10356e-011 8.24929e-012
354
root  2.24931 40.5905 36.0765 173.435 -75.0147 -179.24
RightUpLeg  -4.36762 -8.69974 -18.5783
RightLeg  28.8846 8.51766 4.85851
RightFoot  9.50948 -1.8839 10.5751
RightToes  -1.74623e-010 0 -2.59999e-017
Spine  2.56019 -2.5584 -13.6008
Spine1  12.8308 -6.3206 8.87555
HEad  -16.5983 -39.8728 18.6453
LeftShoulder1  1.96367 -3.12583 -23.3646
LeftArm  19.8993 13.0468 -46.5188
LeftForeArm  111.317 -79.5736 -107.93
LeftHand  -0.0249681 5.32961 7.78965
RightShoulder  3.44919 5.6528 31.784
RightArm  -5.05643 -29.5253 34.2128
RightForeArm  23.1485 60.9081 18.3556
RightHand  -0.0188925 -5.00268 4.84859
LeftUpLeg  3.12101 11.5384 15.2107
LeftLeg  19.2252 2.28016 0.727223
LeftFoot  7.17226 2.58441 -16.038
LeftToes  -6.27559e-011 -2.10356e-011 8.24929e-012
355
root  2.32106 40.7963 35.5546 173.927 -75.7463 -179.484
RightUpLeg  -3.52555 -7.98118 -19.2526
RightLeg  24.7814 6.39611 3.01542
RightFoot  8.57318 -1.93737 11.3456
RightToes  -1.74623e-010 0 -2.59999e-017
Spine  2.54187 -2.76351 -12.2942
Spine1  12.3761 -5.90637 7.76486
HEad  -17.1557 -40.147 19.082
LeftShoulder1  1.9414 -3.37072 -21.9015
LeftArm  19.1966 16.7111 -47.8983
LeftForeArm  114.298 -79.5616 -109.395
LeftHand  -0.0428972 5.01211 6.92649
RightShoulder  3.1463 5.30111 29.825
RightArm  -3.71765 -29.8533 34.4168
RightForeArm  18.6635 62.4008 20.2566
RightHand  -0.0272539 -5.26876 5.21113
LeftUpLeg  2.75118 10.3289 14.5552
LeftLeg  19.4612 2.71513 1.21311
LeftFoot  7.19771 2.21509 -13.745
LeftToes  -6.27559e-011 -2.10356e-011 8.24929e-012
356
root  2.47112 40.3558 35.0844 174.667 -76.5267 179.82
RightUpLeg  -3.59811 -7.88949 -20.3756
RightLeg  22.7224 4.90311 2.03512
RightFoot  10.363 -2.37098 12.6239
RightToes  -1.74623e-010 0 -2.59999e-017
Spine  2.61374 -3.04199 -11.1492
Spine1  12.9794 -5.79799 6.81353
HEad  -19.1658 -39.8115 19.6199
LeftShoulder1  1.83452 -3.30684 -20.5099
LeftArm  19.0109 16.5332 -48.6099
LeftForeArm  112.426 -79.8433 -105.832
LeftHand  -0.0536557 4.82507 7.05975
RightShoulder  2.86242 4.96462 27.8435
RightArm  -3.16734 -27.2604 34.0191
RightForeArm  18.717 63.2966 21.1652
RightHand  -0.0219804 -5.09269 3.23183
LeftUpLeg  1.65795 9.63794 13.8983
LeftLeg  23.5384 0.318173 0.486417
LeftFoot  3.10288 1.72389 -13.6756
LeftToes  -6.27559e-011 -2.10356e-011 8.24929e-012
